<?xml version="1.0" encoding="utf-8"?>
<!-- Generator: Adobe Illustrator 24.3.0, SVG Export Plug-In . SVG Version: 6.00 Build 0)  -->
<svg version="1.1" id="Layer_1" xmlns="http://www.w3.org/2000/svg" xmlns:xlink="http://www.w3.org/1999/xlink" x="0px" y="0px"
	 viewBox="0 0 1000 286.6" style="enable-background:new 0 0 1000 286.6;" xml:space="preserve">
<style type="text/css">
	.st0{fill-rule:evenodd;clip-rule:evenodd;fill:#E5E5E5;}
	.st1{fill-rule:evenodd;clip-rule:evenodd;fill:#0071FF;}
	.st2{fill-rule:evenodd;clip-rule:evenodd;fill:url(#SVGID_1_);}
	.st3{fill:url(#SVGID_2_);}
	.st4{fill:#6D6D6D;}
	.st5{fill:#303030;}
	.st6{fill:#999999;}
</style>
<path class="st0" d="M0,0h1000v286.6H0V0z"/>
<g>
	<g transform="translate(-20 28.7)">
		<path class="st1" d="M163.4,177.4c0.3,0.5,0.5,0.9,0.5,1.4c0,0.6-0.3,1.1-0.8,1.5c-0.5,0.4-1,0.6-1.7,0.6c-0.4,0-0.8-0.1-1.2-0.3
			c-0.4-0.2-0.7-0.5-1-0.9l-5.3-8c-0.5-0.9-1.1-1.6-1.7-1.9c-0.7-0.3-1.5-0.5-2.4-0.5H146v9c0,0.8-0.2,1.4-0.7,1.9
			c-0.4,0.5-1,0.7-1.8,0.7c-0.8,0-1.4-0.2-1.9-0.7c-0.5-0.5-0.7-1.1-0.7-2V155c0-0.8,0.2-1.4,0.7-1.8c0.5-0.5,1.1-0.7,1.8-0.7h10
			c3.2,0,5.6,0.7,7.3,2.2c1.7,1.4,2.5,3.4,2.5,6.1c0,2.2-0.6,4-1.9,5.4c-1.2,1.4-2.9,2.3-5.2,2.7c0.8,0.2,1.5,0.5,2,1
			c0.7,0.5,1.3,1.1,1.8,2L163.4,177.4z M152.6,165.4c2,0,3.4-0.4,4.3-1.1c0.9-0.8,1.3-1.9,1.3-3.4c0-1.6-0.4-2.7-1.3-3.4
			c-0.9-0.7-2.4-1-4.3-1h-6.7v8.8L152.6,165.4z M180.3,181c-3.9,0-6.8-1-8.8-3s-3-4.9-3-8.8v-14.4c0-0.8,0.2-1.4,0.7-1.9
			c0.4-0.5,1-0.7,1.8-0.7c0.8,0,1.4,0.2,1.8,0.7c0.5,0.5,0.7,1.1,0.7,1.9v14.7c0,2.4,0.6,4.2,1.7,5.5c1.2,1.3,2.9,1.9,5,1.9
			c2.3,0,3.9-0.7,5-2c1.2-1.2,1.8-3,1.8-5.4v-14.7c0-0.8,0.2-1.4,0.7-1.9c0.5-0.5,1.1-0.7,1.8-0.7c0.8,0,1.4,0.2,1.9,0.7
			c0.4,0.5,0.6,1.1,0.6,1.9v14.4c0,3.8-1,6.7-3,8.8C187,180,184.1,181,180.3,181z M207.7,181c-2,0-3.9-0.3-5.8-0.8
			c-1.8-0.6-3.3-1.4-4.5-2.3c-0.6-0.4-0.9-1-0.9-1.9c0-0.5,0.2-1,0.5-1.4c0.3-0.5,0.7-0.7,1.2-0.7s1,0.2,1.6,0.6
			c1.2,0.8,2.4,1.4,3.6,1.8c1.3,0.4,2.7,0.6,4.2,0.6c2,0,3.5-0.3,4.5-1s1.5-1.7,1.5-3c0-1.1-0.5-1.9-1.4-2.4c-1-0.5-2.6-1.1-4.9-1.6
			c-2.3-0.5-4.2-1-5.7-1.7c-1.5-0.7-2.6-1.5-3.3-2.6c-0.7-1-1.1-2.3-1.1-4c0-1.6,0.5-3.1,1.4-4.4c0.9-1.3,2.2-2.3,3.8-3
			c1.7-0.7,3.6-1.1,5.7-1.1c3.8,0,6.9,1,9.3,3c0.3,0.3,0.6,0.6,0.7,0.9c0.2,0.3,0.3,0.6,0.3,1c0,0.6-0.2,1.1-0.6,1.5
			c-0.3,0.4-0.6,0.6-1.1,0.6l-0.8-0.1l-0.9-0.5c-1.1-0.8-2.1-1.4-3.2-1.7c-1-0.4-2.2-0.6-3.7-0.6c-1.8,0-3.2,0.4-4.3,1.1
			c-1.1,0.7-1.6,1.7-1.6,3c0,1.1,0.5,2,1.4,2.6c0.9,0.5,2.5,1.1,4.8,1.6c2.3,0.5,4.2,1.1,5.7,1.8c1.5,0.7,2.7,1.5,3.4,2.5
			c0.8,1,1.2,2.3,1.2,3.8c0,1.7-0.5,3.1-1.4,4.4c-0.9,1.3-2.2,2.3-3.9,3C211.8,180.7,209.9,181,207.7,181L207.7,181z M232.1,180.8
			c-0.8,0-1.4-0.2-1.9-0.7s-0.7-1.1-0.7-1.8v-21.6h-7.3c-1.6,0-2.4-0.7-2.4-2.2s0.8-2.1,2.4-2H242c1.6,0,2.4,0.7,2.4,2
			s-0.8,2.1-2.4,2.2h-7.3v21.6c0,0.7-0.2,1.3-0.7,1.8S232.9,180.8,232.1,180.8z M249.9,180.6c-0.8,0-1.4-0.2-1.9-0.6
			c-0.4-0.5-0.6-1.1-0.6-1.8v-23.3c0-0.8,0.2-1.4,0.6-1.8c0.5-0.5,1.1-0.7,1.9-0.7h8c4.5,0,8.1,1.2,10.6,3.7
			c2.6,2.5,3.9,5.9,3.9,10.4c0,4.5-1.3,7.9-3.9,10.4c-2.5,2.5-6.1,3.7-10.7,3.7L249.9,180.6z M257.5,176.4c6.5,0,9.7-3.3,9.7-9.9
			c0-6.6-3.2-9.9-9.7-9.9h-5v19.8L257.5,176.4z M280,180.6c-0.7,0-1.3-0.2-1.8-0.6c-0.4-0.5-0.6-1.1-0.6-1.8v-23.3
			c0-0.8,0.2-1.4,0.6-1.8c0.5-0.5,1.1-0.7,1.8-0.7h14.5c0.7,0,1.3,0.2,1.8,0.5c0.4,0.4,0.6,0.9,0.6,1.5c0,0.7-0.2,1.2-0.6,1.6
			c-0.5,0.3-1.1,0.5-1.8,0.5h-11.9v7.8h11c0.8,0,1.4,0.2,1.9,0.5c0.4,0.3,0.6,0.8,0.6,1.5c0,0.7-0.2,1.2-0.6,1.5
			c-0.4,0.3-1,0.5-1.8,0.5h-11v8.2h11.8c0.7,0,1.3,0.2,1.8,0.6c0.4,0.3,0.6,0.8,0.6,1.5c0,0.7-0.2,1.2-0.6,1.5
			c-0.4,0.3-1,0.5-1.8,0.5H280z M310.5,181c-2.1,0-4-0.3-5.9-0.8c-1.8-0.6-3.3-1.4-4.4-2.3c-0.7-0.4-1-1-1-1.9c0-0.5,0.2-1,0.6-1.4
			c0.3-0.5,0.7-0.7,1.2-0.7s1,0.2,1.6,0.6c1.1,0.8,2.3,1.4,3.6,1.8c1.3,0.4,2.7,0.6,4.2,0.6c1.9,0,3.4-0.3,4.4-1
			c1.1-0.7,1.6-1.7,1.6-3c0-1.1-0.5-1.9-1.5-2.4c-0.9-0.5-2.5-1.1-4.8-1.6c-2.3-0.5-4.2-1-5.7-1.7c-1.5-0.7-2.6-1.5-3.4-2.6
			c-0.7-1-1-2.3-1-4c0-1.6,0.4-3.1,1.3-4.4c0.9-1.3,2.2-2.3,3.9-3c1.7-0.7,3.5-1.1,5.6-1.1c3.9,0,7,1,9.4,3c0.3,0.3,0.6,0.6,0.7,0.9
			c0.1,0.3,0.2,0.6,0.2,1c0,0.6-0.2,1.1-0.5,1.5c-0.3,0.4-0.7,0.6-1.2,0.6l-0.7-0.1l-0.9-0.5c-1.1-0.8-2.1-1.4-3.2-1.7
			c-1-0.4-2.3-0.6-3.8-0.6c-1.8,0-3.2,0.4-4.3,1.1c-1,0.7-1.5,1.7-1.5,3c0,1.1,0.5,2,1.4,2.6c0.9,0.5,2.5,1.1,4.7,1.6
			c2.4,0.5,4.3,1.1,5.8,1.8c1.5,0.7,2.6,1.5,3.4,2.5s1.2,2.3,1.2,3.8c0,1.7-0.5,3.1-1.4,4.4c-0.9,1.3-2.2,2.3-3.9,3
			C314.5,180.7,312.6,181,310.5,181L310.5,181z M348.1,176.7c0.5,0.5,0.8,1.1,0.8,1.8c0,0.6-0.2,1.1-0.7,1.6s-1,0.7-1.6,0.7
			c-0.7,0-1.3-0.3-1.9-0.9l-13.3-12.4v10.8c0,0.7-0.2,1.3-0.7,1.8c-0.5,0.5-1.1,0.8-1.9,0.8s-1.4-0.3-1.9-0.8
			c-0.5-0.5-0.7-1.1-0.7-1.8v-23.5c0-0.8,0.2-1.4,0.7-1.9s1.1-0.7,1.9-0.7s1.4,0.2,1.9,0.7s0.7,1.1,0.7,1.9V165l12.9-12.1
			c0.5-0.5,1-0.7,1.6-0.7c0.7,0,1.2,0.2,1.6,0.7c0.5,0.5,0.7,1,0.7,1.6s-0.3,1.2-0.8,1.7l-10.7,9.8L348.1,176.7z"/>
	</g>
	<g>
		<path class="st1" d="M133.3,229.9c0.2-0.3,0.4-0.4,0.7-0.4c0.3,0,0.6,0.1,0.8,0.3c0.2,0.3,0.3,0.5,0.3,0.8s-0.1,0.5-0.3,0.7
			l-5.3,6.7v6.5c0,0.4-0.1,0.7-0.4,1c-0.2,0.1-0.5,0.2-0.8,0.2c-0.3,0-0.6-0.1-0.8-0.3c-0.2-0.2-0.3-0.5-0.3-0.9V238l-5.4-6.7
			c-0.2-0.2-0.3-0.4-0.3-0.7c0-0.3,0.1-0.6,0.3-0.8c0.3-0.2,0.5-0.3,0.8-0.3c0.3,0,0.6,0.1,0.8,0.4l5,6.2L133.3,229.9z M139.9,245.8
			c-1.1,0-2-0.3-2.9-0.8c-0.8-0.5-1.4-1.1-1.9-2c-0.4-0.9-0.6-1.9-0.6-3s0.2-2.1,0.6-3c0.5-0.9,1.1-1.5,2-2c0.8-0.5,1.7-0.7,2.8-0.7
			s2,0.2,2.8,0.7c0.9,0.5,1.5,1.1,2,2c0.4,0.9,0.6,1.9,0.6,3c0,1.1-0.2,2.1-0.6,3c-0.5,0.9-1.1,1.5-2,2
			C141.9,245.5,141,245.8,139.9,245.8z M139.9,243.9c1,0,1.8-0.3,2.3-1c0.5-0.7,0.8-1.6,0.8-2.9s-0.3-2.2-0.8-2.9
			c-0.5-0.7-1.3-1-2.3-1c-1,0-1.8,0.3-2.3,1c-0.5,0.7-0.8,1.7-0.8,3c0,1.2,0.3,2.1,0.8,2.8C138.1,243.6,138.9,243.9,139.9,243.9
			L139.9,243.9z M156.4,234.3c0.4,0,0.7,0.1,0.9,0.3c0.2,0.2,0.3,0.5,0.3,0.8v9.2c0,0.3-0.1,0.6-0.3,0.8c-0.3,0.2-0.6,0.3-0.9,0.3
			c-0.3,0-0.6-0.1-0.8-0.3c-0.1-0.2-0.2-0.4-0.2-0.7v-0.9c-0.4,0.7-0.9,1.2-1.5,1.5c-0.7,0.3-1.3,0.5-2,0.5c-2.7,0-4-1.5-4-4.5v-5.8
			c0-0.3,0.1-0.6,0.2-0.8c0.2-0.2,0.5-0.3,0.9-0.3c0.3,0,0.6,0.1,0.8,0.3c0.2,0.2,0.3,0.5,0.3,0.8v5.9c0,0.9,0.2,1.5,0.6,2
			c0.3,0.4,0.9,0.6,1.6,0.6c0.9,0,1.7-0.3,2.2-0.9c0.5-0.5,0.8-1.3,0.8-2.3v-5.3c0-0.3,0.1-0.6,0.3-0.8c0.2-0.2,0.5-0.3,0.8-0.3
			L156.4,234.3z M166.6,234.3c0.7,0,1,0.3,1,1c0,0.3-0.1,0.5-0.2,0.7c-0.1,0.1-0.4,0.2-0.9,0.3h-0.6c-1,0.1-1.7,0.5-2.2,1
			c-0.4,0.7-0.6,1.4-0.6,2.1v5.2c0,0.4-0.1,0.7-0.4,0.8c-0.2,0.2-0.5,0.3-0.8,0.3c-0.3,0-0.6-0.1-0.8-0.3c-0.2-0.1-0.3-0.4-0.3-0.8
			v-9.1c0-0.3,0.1-0.6,0.3-0.8c0.2-0.2,0.5-0.3,0.8-0.3c0.3,0,0.6,0.1,0.8,0.3c0.2,0.2,0.3,0.5,0.3,0.8v1c0.3-0.7,0.7-1.2,1.3-1.5
			c0.6-0.3,1.3-0.5,2-0.6L166.6,234.3z M180.9,234.3c0.7,0,1,0.3,1,1c0,0.3-0.1,0.5-0.2,0.7l-0.9,0.3h-0.7c-0.9,0.1-1.6,0.5-2,1
			c-0.5,0.7-0.8,1.4-0.8,2.1v5.2c0,0.4-0.1,0.7-0.3,0.8c-0.2,0.2-0.5,0.3-0.8,0.3c-0.3,0-0.6-0.1-0.8-0.3c-0.3-0.1-0.4-0.4-0.4-0.8
			v-9.1c0-0.3,0.1-0.6,0.4-0.8c0.2-0.2,0.5-0.3,0.8-0.3c0.3,0,0.6,0.1,0.8,0.3c0.2,0.2,0.3,0.5,0.3,0.8v1c0.3-0.7,0.7-1.2,1.3-1.5
			c0.5-0.3,1.2-0.5,2-0.6L180.9,234.3z M191.8,242.8c0.2,0,0.4,0.1,0.5,0.3c0.1,0.1,0.2,0.3,0.2,0.6c0,0.4-0.3,0.8-0.8,1.1
			c-0.5,0.3-1.1,0.6-1.8,0.7c-0.6,0.2-1.2,0.3-1.7,0.3c-1.8,0-3.2-0.5-4.2-1.6c-1-1-1.5-2.4-1.5-4.2c0-1.1,0.2-2.1,0.6-3
			c0.5-0.9,1.1-1.5,2-2c0.7-0.5,1.6-0.7,2.7-0.7c1.5,0,2.6,0.5,3.5,1.4c0.9,0.9,1.3,2.2,1.3,3.8c0,0.7-0.3,1-0.8,1h-7
			c0.1,2.3,1.2,3.5,3.3,3.5c0.6,0,1.1-0.1,1.5-0.3l1.3-0.6l0.4-0.1L191.8,242.8z M187.8,235.9c-0.9,0-1.5,0.3-2,0.9
			c-0.6,0.5-0.9,1.3-1,2.3h5.8c0-1-0.3-1.8-0.8-2.3C189.3,236.2,188.7,235.9,187.8,235.9z M207.8,234.3c2.5,0,3.7,1.5,3.7,4.4v6
			c0,0.3-0.1,0.5-0.3,0.7c-0.2,0.2-0.5,0.3-0.8,0.3c-0.3,0-0.6-0.1-0.9-0.3c-0.2-0.2-0.3-0.5-0.3-0.8v-5.9c0-0.9-0.2-1.5-0.5-2
			c-0.3-0.4-0.8-0.6-1.5-0.6c-0.9,0-1.5,0.3-2,0.9c-0.5,0.5-0.7,1.3-0.7,2.3v5.3c0,0.3-0.1,0.6-0.3,0.8c-0.3,0.2-0.6,0.3-0.9,0.3
			c-0.3,0-0.6-0.1-0.8-0.3c-0.2-0.2-0.3-0.5-0.3-0.8v-5.9c0-0.9-0.2-1.5-0.5-2c-0.3-0.4-0.9-0.6-1.6-0.6c-0.8,0-1.5,0.3-2,0.9
			c-0.5,0.5-0.7,1.3-0.7,2.3v5.3c0,0.3-0.1,0.6-0.3,0.8c-0.2,0.2-0.5,0.3-0.8,0.3c-0.3,0-0.6-0.1-0.9-0.3c-0.2-0.2-0.3-0.5-0.3-0.8
			v-9.1c0-0.3,0.1-0.6,0.3-0.8c0.3-0.2,0.6-0.3,0.9-0.3c0.3,0,0.5,0.1,0.7,0.3c0.3,0.2,0.4,0.5,0.4,0.8v0.8c0.3-0.7,0.8-1.1,1.3-1.4
			c0.7-0.3,1.3-0.5,2-0.5c0.9,0,1.6,0.2,2.2,0.5c0.5,0.3,0.9,0.9,1.2,1.6c0.3-0.7,0.8-1.2,1.5-1.5c0.7-0.4,1.4-0.6,2.2-0.6
			L207.8,234.3z M219.5,245.8c-1.1,0-2.1-0.3-3-0.8c-0.8-0.5-1.4-1.1-1.8-2c-0.5-0.9-0.7-1.9-0.7-3s0.2-2.1,0.7-3
			c0.4-0.9,1-1.5,1.9-2c0.8-0.5,1.8-0.7,2.9-0.7s2.1,0.2,2.8,0.7c0.9,0.5,1.5,1.1,2,2c0.4,0.9,0.6,1.9,0.6,3s-0.2,2.1-0.7,3
			c-0.4,0.9-1,1.5-1.9,2C221.5,245.5,220.6,245.8,219.5,245.8z M219.5,243.9c1,0,1.8-0.3,2.3-1c0.5-0.7,0.8-1.6,0.8-2.9
			s-0.3-2.2-0.8-2.9c-0.6-0.7-1.4-1-2.3-1c-0.9,0-1.7,0.3-2.4,1c-0.5,0.7-0.8,1.7-0.8,3c0,1.2,0.3,2.1,0.8,2.8
			C217.6,243.6,218.4,243.9,219.5,243.9L219.5,243.9z M232.8,243.9c0.3,0.1,0.6,0.2,0.7,0.3s0.2,0.3,0.2,0.6c0,0.3-0.1,0.6-0.3,0.7
			c-0.3,0.2-0.6,0.3-1,0.2h-0.7c-1.2-0.1-2.1-0.5-2.7-1.1c-0.7-0.7-1-1.7-1-3v-5.3h-1.3c-0.7,0-1-0.3-1-0.9c0-0.3,0.1-0.5,0.3-0.6
			c0.2-0.2,0.4-0.3,0.7-0.3h1.4v-2.3c0-0.3,0.1-0.6,0.3-0.8c0.2-0.2,0.5-0.3,0.8-0.3c0.3,0,0.6,0.1,0.9,0.3c0.2,0.2,0.3,0.5,0.3,0.8
			v2.3h2.2c0.3,0,0.6,0.1,0.7,0.3c0.2,0.1,0.3,0.3,0.3,0.6s-0.1,0.5-0.3,0.7c-0.1,0.1-0.4,0.2-0.7,0.2h-2.1v5.5
			c0,0.7,0.1,1.2,0.4,1.6c0.3,0.3,0.8,0.4,1.4,0.5H232.8z M244,242.9c0.3,0,0.5,0.1,0.6,0.2c0.1,0.1,0.2,0.3,0.2,0.6
			c0,0.4-0.3,0.8-0.8,1.1c-0.5,0.3-1.1,0.6-1.8,0.7c-0.7,0.2-1.3,0.3-1.8,0.3c-1.7,0-3.1-0.5-4.1-1.6c-1-1-1.5-2.4-1.5-4.2
			c0-1.1,0.2-2.1,0.6-3c0.5-0.9,1.1-1.5,1.9-2s1.7-0.7,2.8-0.7c1.5,0,2.6,0.5,3.5,1.4c0.9,0.9,1.3,2.2,1.3,3.8c0,0.7-0.3,1-0.9,1h-7
			c0.2,2.3,1.3,3.5,3.4,3.5c0.6,0,1.1-0.1,1.5-0.3l1.3-0.6l0.3-0.1l0.5-0.2V242.9z M240.1,235.9c-0.9,0-1.6,0.3-2.1,0.9
			c-0.5,0.5-0.9,1.3-1,2.3h5.9c0-1-0.3-1.8-0.8-2.3C241.6,236.2,241,235.9,240.1,235.9z M262.4,229.5c0.3,0,0.6,0.1,0.8,0.3
			c0.3,0.2,0.4,0.5,0.4,0.8v14c0,0.3-0.1,0.6-0.4,0.8c-0.2,0.2-0.5,0.3-0.8,0.3s-0.6-0.1-0.8-0.3c-0.2-0.2-0.3-0.5-0.3-0.8v-1
			c-0.3,0.7-0.8,1.2-1.5,1.6s-1.4,0.6-2.2,0.6c-0.9,0-1.8-0.3-2.5-0.8c-0.7-0.5-1.3-1.1-1.8-2c-0.4-0.9-0.6-1.9-0.6-3
			c0-1.2,0.2-2.2,0.6-3c0.5-0.9,1.1-1.5,1.8-2c0.7-0.5,1.5-0.7,2.5-0.7c0.9,0,1.6,0.2,2.2,0.5c0.7,0.3,1.2,0.8,1.5,1.5v-5.8
			c0-0.3,0.1-0.5,0.3-0.7C261.8,229.6,262.1,229.5,262.4,229.5z M258.2,243.9c1,0,1.8-0.3,2.3-1c0.5-0.7,0.8-1.6,0.8-2.9
			s-0.3-2.2-0.8-2.9c-0.5-0.7-1.3-1-2.3-1c-1,0-1.8,0.3-2.3,1c-0.6,0.7-0.9,1.6-0.9,2.9c0,1.2,0.3,2.2,0.9,2.9
			C256.4,243.6,257.2,243.9,258.2,243.9z M275.4,242.9c0.2,0,0.4,0.1,0.5,0.2s0.2,0.3,0.2,0.6c0,0.4-0.3,0.8-0.8,1.1
			c-0.5,0.3-1.1,0.6-1.7,0.7c-0.7,0.2-1.3,0.3-1.8,0.3c-1.7,0-3.1-0.5-4.2-1.6c-1-1-1.5-2.4-1.5-4.2c0-1.1,0.2-2.1,0.7-3
			s1.1-1.5,1.9-2s1.7-0.7,2.7-0.7c1.5,0,2.6,0.5,3.5,1.4c0.9,0.9,1.3,2.2,1.3,3.8c0,0.7-0.3,1-0.8,1h-7c0.1,2.3,1.3,3.5,3.4,3.5
			c0.5,0,1-0.1,1.4-0.3c0.5-0.1,0.9-0.3,1.3-0.6l0.4-0.1l0.5-0.2L275.4,242.9z M271.4,235.9c-0.8,0-1.5,0.3-2,0.9
			c-0.5,0.5-0.9,1.3-1,2.3h5.9c-0.1-1-0.3-1.8-0.8-2.3c-0.5-0.6-1.1-0.9-2-0.9H271.4z M282.6,245.8c-1.5,0-2.8-0.3-3.8-1
			c-0.3-0.1-0.5-0.3-0.6-0.5l-0.1-0.6c0-0.3,0.1-0.5,0.2-0.6c0.1-0.2,0.3-0.3,0.5-0.3c0.2,0,0.5,0.1,1,0.4l1.2,0.6
			c0.5,0.1,1,0.2,1.7,0.2c0.7,0,1.2-0.1,1.7-0.4c0.4-0.3,0.6-0.6,0.6-1c0-0.3-0.1-0.6-0.3-0.8c-0.1-0.2-0.4-0.4-0.8-0.5l-1.7-0.5
			c-1.3-0.3-2.3-0.6-3-1.1c-0.5-0.5-0.8-1.2-0.8-2c0-0.7,0.2-1.3,0.6-1.8s0.9-0.9,1.6-1.2s1.4-0.4,2.2-0.4c0.7,0,1.3,0.1,1.8,0.2
			c0.6,0.1,1.1,0.4,1.5,0.7c0.5,0.3,0.8,0.7,0.8,1.1c0,0.3-0.1,0.5-0.3,0.7c-0.1,0.1-0.3,0.2-0.5,0.2h-0.4c-0.1,0-0.3-0.1-0.5-0.4
			l-1.2-0.5c-0.3-0.1-0.8-0.2-1.3-0.2c-0.7,0-1.2,0.1-1.5,0.4c-0.4,0.3-0.6,0.6-0.6,1c0,0.5,0.2,0.8,0.5,1c0.4,0.3,1.1,0.5,2,0.7
			c1.1,0.2,1.9,0.5,2.4,0.8c0.6,0.3,1,0.6,1.2,1c0.3,0.4,0.4,0.9,0.4,1.5c0,1-0.4,1.8-1.2,2.4S284,245.8,282.6,245.8L282.6,245.8z
			 M299,243.8c0.3,0.2,0.4,0.5,0.4,0.8c0,0.3-0.1,0.6-0.3,0.8s-0.4,0.3-0.7,0.3c-0.3,0-0.6-0.1-0.8-0.3l-5.6-5v4.2
			c0,0.3-0.1,0.6-0.4,0.8c-0.2,0.2-0.5,0.3-0.8,0.3c-0.3,0-0.6-0.1-0.8-0.3s-0.3-0.5-0.3-0.8v-14c0-0.3,0.1-0.6,0.3-0.8
			s0.5-0.3,0.8-0.3c0.3,0,0.6,0.1,0.8,0.3c0.3,0.2,0.4,0.5,0.4,0.8v8.9l5.1-4.8c0.3-0.3,0.5-0.4,0.8-0.4c0.3,0,0.5,0.1,0.7,0.3
			c0.2,0.3,0.3,0.5,0.3,0.8s-0.1,0.5-0.3,0.8l-4,3.7L299,243.8z M306.7,244c0.3,0,0.6,0.1,0.7,0.2c0.2,0.1,0.3,0.3,0.3,0.6
			c0,0.3-0.1,0.6-0.4,0.7c-0.2,0.2-0.5,0.3-1,0.2h-0.6c-1.3-0.1-2.2-0.5-2.8-1.1c-0.6-0.7-0.9-1.7-0.9-3v-5.3h-1.3
			c-0.7,0-1-0.3-1-0.9c0-0.3,0.1-0.5,0.2-0.6c0.2-0.2,0.5-0.3,0.8-0.3h1.3v-2.3c0-0.3,0.1-0.6,0.3-0.8s0.5-0.3,0.9-0.3
			c0.3,0,0.6,0.1,0.8,0.3c0.2,0.2,0.3,0.5,0.3,0.8v2.3h2.3c0.3,0,0.5,0.1,0.7,0.3c0.2,0.1,0.3,0.3,0.3,0.6c0,0.3-0.1,0.5-0.3,0.7
			c-0.2,0.1-0.4,0.2-0.7,0.2h-2.3v5.5c0,0.7,0.1,1.2,0.4,1.6c0.3,0.3,0.8,0.4,1.4,0.5L306.7,244z M314.1,245.8c-1.1,0-2-0.3-2.8-0.8
			c-0.9-0.5-1.5-1.1-2-2c-0.4-0.9-0.6-1.9-0.6-3s0.2-2.1,0.6-3c0.5-0.9,1.1-1.5,2-2c0.8-0.5,1.7-0.7,2.8-0.7s2,0.2,2.9,0.7
			c0.8,0.5,1.4,1.1,1.9,2s0.7,1.9,0.7,3s-0.2,2.1-0.7,3s-1.1,1.5-2,2C316.2,245.5,315.2,245.8,314.1,245.8L314.1,245.8z
			 M314.1,243.9c1,0,1.8-0.3,2.3-1c0.6-0.7,0.9-1.6,0.9-2.9s-0.3-2.2-0.9-2.9c-0.5-0.7-1.3-1-2.3-1c-1,0-1.8,0.3-2.3,1
			c-0.5,0.7-0.8,1.7-0.8,3c0,1.2,0.3,2.1,0.8,2.8C312.3,243.6,313.1,243.9,314.1,243.9L314.1,243.9z M328.1,234.3
			c0.9,0,1.8,0.2,2.5,0.7c0.7,0.5,1.3,1.1,1.7,2c0.5,0.9,0.7,1.9,0.7,3c0,1.2-0.2,2.2-0.6,3c-0.4,0.8-1,1.5-1.8,2
			c-0.7,0.5-1.6,0.8-2.6,0.8c-0.8,0-1.5-0.2-2.2-0.6c-0.6-0.3-1.1-0.8-1.4-1.5v5c0,0.3-0.1,0.6-0.3,0.8c-0.2,0.2-0.5,0.3-0.8,0.3
			s-0.6-0.1-0.9-0.3c-0.2-0.2-0.3-0.5-0.3-0.8v-13.3c0-0.3,0.1-0.6,0.3-0.8s0.5-0.3,0.9-0.3c0.3,0,0.6,0.1,0.8,0.3
			c0.2,0.2,0.3,0.5,0.3,0.8v1c0.3-0.7,0.8-1.2,1.4-1.6C326.5,234.5,327.2,234.3,328.1,234.3L328.1,234.3z M327.5,243.9
			c1,0,1.8-0.3,2.3-1c0.5-0.7,0.8-1.6,0.8-2.8c0-1.3-0.3-2.3-0.8-3c-0.5-0.7-1.3-1-2.3-1s-1.8,0.3-2.3,1c-0.5,0.7-0.8,1.7-0.8,3
			c0,1.2,0.3,2.1,0.8,2.8C325.7,243.6,326.5,243.9,327.5,243.9z"/>
	</g>
</g>
<linearGradient id="SVGID_1_" gradientUnits="userSpaceOnUse" x1="-456.9429" y1="678.9938" x2="-456.2429" y2="679.6938" gradientTransform="matrix(94.0017 0 0 -93.9977 43140.7969 63950.6133)">
	<stop  offset="0" style="stop-color:#0071FF"/>
	<stop  offset="1" style="stop-color:#00BFE1"/>
</linearGradient>
<path class="st2" d="M258.7,64.2l-7.7,7.6c-1.4,1.3-2,3.2-1.3,4.9c5.2,10.7,3.2,23.5-5.2,32c-8.5,8.3-21.3,10.4-32,5.2
	c-1.7-0.7-3.5,0-4.7,1.2l-7.9,7.8c-1.6,1.7-1.6,4.3,0.1,5.9c0.2,0.2,0.5,0.4,0.7,0.6c22.3,13.4,51.1,6.2,64.5-16.1
	c8.9-14.8,8.9-33.3,0.1-48.2c-0.6-1.1-1.8-1.8-3-2c-1.3-0.2-2.6,0.1-3.6,1V64.2z M192,55.8c-15.4,15.2-18.4,38.9-7.3,57.5
	c1.2,2,3.7,2.7,5.7,1.6c0.3-0.2,0.6-0.4,0.9-0.7l7.7-7.6c1.4-1.3,2-3.2,1.3-5c-5.2-10.7-3.2-23.5,5.2-32c8.5-8.3,21.3-10.4,32-5.2
	c1.6,0.7,3.5,0.1,4.7-1l7.9-8c1.6-1.7,1.6-4.3-0.1-5.9c-0.2-0.2-0.5-0.4-0.7-0.6c-18.5-11.1-42.2-8.2-57.4,7.1L192,55.8z"/>
<g>
	<g>
		
			<linearGradient id="SVGID_2_" gradientUnits="userSpaceOnUse" x1="795.4" y1="221.7073" x2="795.4" y2="134.7404" gradientTransform="matrix(1 0 0 -1 0 288)">
			<stop  offset="0" style="stop-color:#A40F16"/>
			<stop  offset="1" style="stop-color:#971016"/>
		</linearGradient>
		<path class="st3" d="M782.9,66.3h25c8.5,0,16.3,3.5,21.9,9.1c5.6,5.6,9.1,13.4,9.1,22v24.9c0,8.5-3.5,16.3-9.1,21.9
			c-5.6,5.6-13.4,9.1-21.9,9.1H783c-8.5,0-16.3-3.5-21.9-9.1c-5.6-5.6-9.1-13.4-9.1-21.9V97.3c0-8.5,3.5-16.3,9.1-21.9
			C766.7,69.8,774.4,66.3,782.9,66.3z M787.3,93.4l-2.6-0.1c-1.9,0-3.5-1.5-3.5-3.5c0-1.9-1.5-3.4-3.5-3.4h-2.6
			c-1.9,0-3.5,1.5-3.5,3.5v32.3c0,3.1,1.3,5.9,3.3,7.9s4.9,3.3,7.9,3.3h24.9c3.1,0,5.9-1.3,7.9-3.3c2-2,3.3-4.8,3.3-7.8V90
			c0-1.9-1.5-3.5-3.5-3.5h-2.5c-1.9,0-3.5,1.5-3.5,3.4c0,1.9-1.5,3.5-3.5,3.5h-2.5c-1.9,0-3.5-1.6-3.5-3.5s-1.5-3.4-3.5-3.4h-2.5
			c-1.9,0-3.5,1.5-3.5,3.4S789.2,93.4,787.3,93.4z"/>
		<g>
			<path class="st4" d="M799.6,108.6c1.2-1.2,3.2-1.2,4.4,0l4.4,4.4c1.2,1.2,1.2,3.2,0,4.4l-11,11l13.2,13.2c1.2,1.2,1.2,3.2,0,4.4
				l-4.4,4.4c-1.2,1.2-3.2,1.2-4.4,0l-19.8-19.8c-1.2-1.2-1.2-3.2,0-4.4L799.6,108.6z"/>
		</g>
		<g>
			<path class="st4" d="M765.8,132c-1.2,1.2-3.2,1.2-4.4,0l-4.4-4.4c-1.2-1.2-1.2-3.2,0-4.4l11-11L754.9,99c-1.2-1.2-1.2-3.2,0-4.4
				l4.4-4.4c1.2-1.2,3.2-1.2,4.4,0l19.8,19.8c1.2,1.2,1.2,3.2,0,4.4L765.8,132z"/>
		</g>
	</g>
</g>
<g>
	<path class="st5" d="M712.5,187.3c0-1.6,0.2-3,0.6-4.2c0.4-1.2,1-2.2,1.8-3c0.8-0.8,1.7-1.4,2.8-1.7s2.4-0.6,3.8-0.6
		s2.7,0.2,3.8,0.6s2.1,1,2.8,1.7c0.8,0.8,1.4,1.8,1.8,3c0.4,1.2,0.6,2.6,0.6,4.2c0,1.6-0.2,3-0.6,4.2c-0.4,1.2-1,2.2-1.8,2.9
		c-0.8,0.8-1.7,1.4-2.8,1.7s-2.4,0.6-3.8,0.6s-2.7-0.2-3.8-0.6s-2.1-1-2.8-1.7c-0.8-0.8-1.4-1.8-1.8-2.9
		C712.7,190.3,712.5,188.9,712.5,187.3z M718.3,187.3c0,3.2,1.1,4.9,3.2,4.9c1.1,0,1.9-0.4,2.4-1.2c0.5-0.8,0.8-2,0.8-3.7
		c0-3.2-1.1-4.9-3.2-4.9S718.3,184,718.3,187.3z"/>
	<path class="st5" d="M742.5,178.1c1.1,0,2,0.2,2.8,0.5c0.8,0.3,1.5,0.8,2.1,1.3s1,1.2,1.2,2c0.3,0.8,0.4,1.6,0.4,2.5
		c0,1.2-0.3,2.4-0.8,3.4c-0.5,1-1.3,1.8-2.3,2.4l4.1,6.2c-0.3,0-0.7,0.1-1,0.1c-0.4,0-0.8,0-1.1,0c-0.4,0-0.7,0-1.1,0
		c-0.3,0-0.6,0-0.7,0c-0.6,0-1.1,0-1.5-0.1c-0.4-0.1-0.7-0.2-1-0.4c-0.3-0.2-0.5-0.4-0.7-0.6c-0.2-0.2-0.4-0.5-0.6-0.8l-2.3-3.5
		h-1.2v5.4h-5.7v-18.4H742.5z M741.4,186.2c0.6,0,1.1-0.1,1.4-0.4c0.3-0.3,0.5-0.7,0.5-1.2c0-1.1-0.6-1.6-1.8-1.6h-2.5v3.2H741.4z"
		/>
	<path class="st5" d="M755.7,178h3.8c0.9,0,1.6,0.1,2.2,0.2c0.6,0.1,1.1,0.4,1.5,0.7s0.8,0.9,1.1,1.5c0.3,0.6,0.6,1.4,0.9,2.4
		l4,13.7h-5.7l-1.2-4.3h-4.8l-1.1,4.3h-5.5L755.7,178z M758.3,188.1h2.7l-1.4-4.8h-0.1L758.3,188.1z"/>
	<path class="st5" d="M776.6,192.1c0.7,0,1.2,0,1.6-0.1c0.4-0.1,0.7-0.2,0.9-0.3c0.2-0.1,0.4-0.2,0.4-0.4s0.1-0.3,0.1-0.4
		c0-0.4-0.2-0.6-0.7-0.8s-1-0.3-1.6-0.4c-0.7-0.1-1.4-0.3-2.1-0.4c-0.8-0.2-1.5-0.5-2.1-0.9c-0.7-0.4-1.2-1-1.6-1.7
		c-0.4-0.7-0.7-1.7-0.7-2.8c0-1.1,0.2-2.1,0.6-2.9c0.4-0.8,1-1.4,1.7-1.9s1.6-0.9,2.7-1.1c1-0.2,2.2-0.3,3.5-0.3
		c0.9,0,1.8,0.1,2.7,0.2c0.9,0.1,1.6,0.3,2.2,0.5c0,0.4,0,0.8-0.1,1.2s-0.1,0.9-0.1,1.3c-0.1,0.4-0.1,0.8-0.2,1.2
		c-0.1,0.4-0.2,0.7-0.4,0.9c-0.9-0.2-1.6-0.4-2.3-0.5c-0.7-0.1-1.4-0.1-2.1-0.1c-0.9,0-1.6,0.1-1.9,0.2s-0.5,0.4-0.5,0.6
		c0,0.3,0.2,0.6,0.7,0.7c0.4,0.2,1,0.3,1.6,0.4c0.7,0.1,1.4,0.3,2.1,0.5c0.8,0.2,1.5,0.5,2.1,0.9c0.7,0.4,1.2,1,1.6,1.7
		c0.4,0.7,0.7,1.7,0.7,2.8c0,1.1-0.2,2-0.6,2.8c-0.4,0.8-1,1.5-1.7,2c-0.7,0.5-1.6,0.9-2.7,1.1c-1,0.2-2.2,0.4-3.4,0.4
		c-0.5,0-1,0-1.6,0c-0.6,0-1.2-0.1-1.7-0.1c-0.5-0.1-1-0.1-1.5-0.2c-0.4-0.1-0.7-0.2-0.9-0.3c-0.2-0.6-0.4-1.4-0.5-2.3
		c-0.1-0.9-0.2-1.7-0.3-2.4c0.3,0.1,0.7,0.2,1.2,0.3c0.5,0.1,1,0.2,1.6,0.2s1.1,0.1,1.7,0.2C775.5,192.1,776,192.1,776.6,192.1z"/>
	<path class="st5" d="M787.7,196.5v-18.4h5.7v6.8h5.1v-6.8h5.7v18.4h-5.7v-6.8h-5.1v6.8H787.7z"/>
	<path class="st5" d="M807.3,178.1h8.1c2.9,0,5.2,0.8,6.8,2.3c1.6,1.5,2.4,3.8,2.4,6.9c0,3.1-0.8,5.4-2.4,6.9
		c-1.6,1.5-3.9,2.3-6.8,2.3h-8.1V178.1z M813,183v8.6h2.4c1.2,0,2-0.4,2.6-1.1c0.5-0.7,0.8-1.8,0.8-3.2c0-1.4-0.3-2.5-0.8-3.2
		c-0.5-0.7-1.4-1.1-2.6-1.1H813z"/>
	<path class="st5" d="M827.3,196.5v-18.4h13.8c0,0.3,0,0.6,0,1.1c0,0.4,0,0.9-0.1,1.3s-0.1,0.9-0.2,1.3s-0.1,0.8-0.3,1.1H833v1.9
		h6.9c0,0.2,0,0.6,0,1c0,0.4,0,0.9-0.1,1.3c0,0.5-0.1,0.9-0.2,1.4c-0.1,0.5-0.2,0.8-0.3,1.2H833v1.9h8.1c0,0.3,0,0.6,0,1.1
		c0,0.4,0,0.9-0.1,1.3s-0.1,0.9-0.2,1.3s-0.1,0.8-0.3,1.1H827.3z"/>
	<path class="st5" d="M848.6,192.1c0.7,0,1.2,0,1.6-0.1c0.4-0.1,0.7-0.2,0.9-0.3c0.2-0.1,0.4-0.2,0.4-0.4c0.1-0.1,0.1-0.3,0.1-0.4
		c0-0.4-0.2-0.6-0.7-0.8s-1-0.3-1.6-0.4c-0.7-0.1-1.4-0.3-2.1-0.4c-0.8-0.2-1.5-0.5-2.1-0.9c-0.7-0.4-1.2-1-1.6-1.7
		c-0.4-0.7-0.7-1.7-0.7-2.8c0-1.1,0.2-2.1,0.6-2.9c0.4-0.8,1-1.4,1.7-1.9c0.7-0.5,1.6-0.9,2.7-1.1s2.2-0.3,3.5-0.3
		c0.9,0,1.8,0.1,2.7,0.2c0.9,0.1,1.6,0.3,2.2,0.5c0,0.4,0,0.8-0.1,1.2c0,0.4-0.1,0.9-0.1,1.3c-0.1,0.4-0.1,0.8-0.2,1.2
		c-0.1,0.4-0.2,0.7-0.4,0.9c-0.9-0.2-1.6-0.4-2.3-0.5c-0.7-0.1-1.4-0.1-2.1-0.1c-0.9,0-1.6,0.1-1.9,0.2c-0.4,0.2-0.5,0.4-0.5,0.6
		c0,0.3,0.2,0.6,0.7,0.7c0.4,0.2,1,0.3,1.6,0.4c0.7,0.1,1.4,0.3,2.1,0.5c0.8,0.2,1.5,0.5,2.1,0.9c0.7,0.4,1.2,1,1.6,1.7
		c0.4,0.7,0.7,1.7,0.7,2.8c0,1.1-0.2,2-0.6,2.8c-0.4,0.8-1,1.5-1.7,2c-0.7,0.5-1.6,0.9-2.7,1.1c-1,0.2-2.2,0.4-3.4,0.4
		c-0.5,0-1,0-1.6,0s-1.2-0.1-1.7-0.1c-0.5-0.1-1-0.1-1.5-0.2c-0.4-0.1-0.7-0.2-0.9-0.3c-0.2-0.6-0.4-1.4-0.5-2.3
		c-0.1-0.9-0.2-1.7-0.3-2.4c0.3,0.1,0.7,0.2,1.2,0.3c0.5,0.1,1,0.2,1.6,0.2c0.6,0.1,1.1,0.1,1.7,0.2
		C847.5,192.1,848,192.1,848.6,192.1z"/>
	<path class="st5" d="M859.7,196.5v-18.4h5.7v9.2l6.8-9.2h6.2l-6.5,8.8l6.5,9.6c-0.3,0-0.6,0.1-1,0.1c-0.4,0-0.8,0-1.1,0
		c-0.4,0-0.7,0-1.1,0c-0.3,0-0.6,0-0.7,0c-0.6,0-1.1,0-1.5-0.1s-0.8-0.2-1.1-0.4c-0.3-0.2-0.5-0.4-0.7-0.6c-0.2-0.2-0.4-0.5-0.6-0.8
		l-5.1-7.5v9.2H859.7z"/>
</g>
<g>
	<path class="st6" d="M731.6,214.1c0,4.2-2.5,6.4-5.6,6.4c-3.2,0-5.5-2.5-5.5-6.2c0-3.9,2.4-6.4,5.6-6.4
		C729.5,208,731.6,210.5,731.6,214.1z M722.2,214.3c0,2.6,1.4,4.9,3.9,4.9c2.5,0,3.9-2.3,3.9-5c0-2.4-1.3-4.9-3.9-4.9
		C723.5,209.3,722.2,211.6,722.2,214.3z"/>
	<path class="st6" d="M740.9,217.9c0,0.9,0,1.7,0.1,2.4h-1.4l-0.1-1.4h0c-0.4,0.7-1.3,1.6-2.9,1.6c-1.4,0-3-0.8-3-3.8v-5.1h1.6v4.8
		c0,1.7,0.5,2.8,1.9,2.8c1.1,0,1.8-0.7,2.1-1.4c0.1-0.2,0.1-0.5,0.1-0.8v-5.3h1.6V217.9z"/>
	<path class="st6" d="M743.5,214.3c0-1,0-1.9-0.1-2.7h1.4l0.1,1.7h0.1c0.4-1.2,1.4-1.9,2.4-1.9c0.2,0,0.3,0,0.4,0.1v1.5
		c-0.2,0-0.3-0.1-0.5-0.1c-1.1,0-1.9,0.8-2.1,2c0,0.2-0.1,0.5-0.1,0.7v4.6h-1.6V214.3z"/>
	<path class="st6" d="M753.2,214.3c0-1,0-1.9-0.1-2.7h1.4l0.1,1.7h0.1c0.4-1.2,1.4-1.9,2.4-1.9c0.2,0,0.3,0,0.4,0.1v1.5
		c-0.2,0-0.3-0.1-0.5-0.1c-1.1,0-1.9,0.8-2.1,2c0,0.2-0.1,0.5-0.1,0.7v4.6h-1.6V214.3z"/>
	<path class="st6" d="M759.8,216.2c0,2.1,1.4,3,3,3c1.1,0,1.8-0.2,2.4-0.5l0.3,1.1c-0.6,0.3-1.5,0.5-2.9,0.5c-2.7,0-4.3-1.8-4.3-4.4
		s1.5-4.7,4.1-4.7c2.8,0,3.6,2.5,3.6,4.1c0,0.3,0,0.6-0.1,0.7H759.8z M764.5,215.1c0-1-0.4-2.6-2.2-2.6c-1.6,0-2.3,1.5-2.4,2.6
		H764.5z"/>
	<path class="st6" d="M768,214c0-0.9,0-1.6-0.1-2.4h1.4l0.1,1.4h0.1c0.5-0.8,1.3-1.6,2.7-1.6c1.2,0,2.1,0.7,2.5,1.7h0
		c0.3-0.5,0.6-0.9,1-1.1c0.5-0.4,1.1-0.6,1.9-0.6c1.2,0,2.9,0.8,2.9,3.8v5.1h-1.5v-4.9c0-1.7-0.6-2.7-1.9-2.7
		c-0.9,0-1.6,0.7-1.9,1.4c-0.1,0.2-0.1,0.5-0.1,0.8v5.4h-1.5v-5.2c0-1.4-0.6-2.4-1.8-2.4c-1,0-1.7,0.8-2,1.6
		c-0.1,0.2-0.1,0.5-0.1,0.8v5.3H768V214z"/>
	<path class="st6" d="M790.9,215.9c0,3.2-2.2,4.6-4.3,4.6c-2.4,0-4.2-1.7-4.2-4.5c0-2.9,1.9-4.6,4.3-4.6
		C789.2,211.4,790.9,213.2,790.9,215.9z M784,216c0,1.9,1.1,3.3,2.6,3.3c1.5,0,2.6-1.4,2.6-3.4c0-1.5-0.7-3.3-2.6-3.3
		C784.8,212.6,784,214.3,784,216z"/>
	<path class="st6" d="M794.8,209.1v2.5h2.3v1.2h-2.3v4.7c0,1.1,0.3,1.7,1.2,1.7c0.4,0,0.7-0.1,0.9-0.1l0.1,1.2
		c-0.3,0.1-0.8,0.2-1.4,0.2c-0.7,0-1.3-0.2-1.7-0.7c-0.5-0.5-0.6-1.2-0.6-2.3v-4.8h-1.4v-1.2h1.4v-2.1L794.8,209.1z"/>
	<path class="st6" d="M799.6,216.2c0,2.1,1.4,3,3,3c1.1,0,1.8-0.2,2.4-0.5l0.3,1.1c-0.6,0.3-1.5,0.5-2.9,0.5c-2.7,0-4.3-1.8-4.3-4.4
		s1.5-4.7,4.1-4.7c2.8,0,3.6,2.5,3.6,4.1c0,0.3,0,0.6-0.1,0.7H799.6z M804.2,215.1c0-1-0.4-2.6-2.2-2.6c-1.6,0-2.3,1.5-2.4,2.6
		H804.2z"/>
	<path class="st6" d="M819.1,207.5v10.5c0,0.8,0,1.7,0.1,2.3h-1.4l-0.1-1.5h0c-0.5,1-1.5,1.7-3,1.7c-2.1,0-3.7-1.8-3.7-4.4
		c0-2.9,1.8-4.7,3.9-4.7c1.3,0,2.2,0.6,2.6,1.3h0v-5.2H819.1z M817.5,215.1c0-0.2,0-0.5-0.1-0.7c-0.2-1-1.1-1.8-2.3-1.8
		c-1.6,0-2.6,1.4-2.6,3.4c0,1.8,0.9,3.2,2.6,3.2c1.1,0,2-0.7,2.3-1.9c0.1-0.2,0.1-0.4,0.1-0.7V215.1z"/>
	<path class="st6" d="M822.6,216.2c0,2.1,1.4,3,3,3c1.1,0,1.8-0.2,2.4-0.5l0.3,1.1c-0.6,0.3-1.5,0.5-2.9,0.5c-2.7,0-4.3-1.8-4.3-4.4
		s1.5-4.7,4.1-4.7c2.8,0,3.6,2.5,3.6,4.1c0,0.3,0,0.6-0.1,0.7H822.6z M827.2,215.1c0-1-0.4-2.6-2.2-2.6c-1.6,0-2.3,1.5-2.4,2.6
		H827.2z"/>
	<path class="st6" d="M830.5,218.7c0.5,0.3,1.3,0.6,2.1,0.6c1.2,0,1.7-0.6,1.7-1.3c0-0.8-0.5-1.2-1.6-1.6c-1.6-0.6-2.3-1.4-2.3-2.5
		c0-1.4,1.1-2.6,3-2.6c0.9,0,1.7,0.3,2.1,0.5l-0.4,1.2c-0.3-0.2-1-0.5-1.8-0.5c-0.9,0-1.5,0.5-1.5,1.2c0,0.7,0.5,1,1.7,1.5
		c1.5,0.6,2.3,1.3,2.3,2.6c0,1.5-1.2,2.6-3.3,2.6c-1,0-1.8-0.2-2.4-0.6L830.5,218.7z"/>
	<path class="st6" d="M839.4,215.6L839.4,215.6c0.3-0.3,0.6-0.7,0.8-1l2.6-3h1.9l-3.4,3.6l3.8,5.1h-1.9l-3-4.2l-0.8,0.9v3.3h-1.6
		v-12.8h1.6V215.6z"/>
	<path class="st6" d="M848.2,209.1v2.5h2.3v1.2h-2.3v4.7c0,1.1,0.3,1.7,1.2,1.7c0.4,0,0.7-0.1,0.9-0.1l0.1,1.2
		c-0.3,0.1-0.8,0.2-1.4,0.2c-0.7,0-1.3-0.2-1.7-0.7c-0.5-0.5-0.6-1.2-0.6-2.3v-4.8h-1.4v-1.2h1.4v-2.1L848.2,209.1z"/>
	<path class="st6" d="M860,215.9c0,3.2-2.2,4.6-4.3,4.6c-2.4,0-4.2-1.7-4.2-4.5c0-2.9,1.9-4.6,4.3-4.6
		C858.3,211.4,860,213.2,860,215.9z M853.1,216c0,1.9,1.1,3.3,2.6,3.3c1.5,0,2.6-1.4,2.6-3.4c0-1.5-0.7-3.3-2.6-3.3
		C853.9,212.6,853.1,214.3,853.1,216z"/>
	<path class="st6" d="M862,214.4c0-1.1,0-2-0.1-2.8h1.4l0.1,1.5h0c0.6-1.1,1.7-1.7,3.1-1.7c2.1,0,3.7,1.8,3.7,4.4
		c0,3.1-1.9,4.7-4,4.7c-1.2,0-2.2-0.5-2.7-1.4h0v4.7H862V214.4z M863.6,216.8c0,0.2,0,0.5,0.1,0.6c0.3,1.1,1.2,1.9,2.4,1.9
		c1.7,0,2.6-1.4,2.6-3.4c0-1.7-0.9-3.2-2.6-3.2c-1.1,0-2.1,0.8-2.4,2c-0.1,0.2-0.1,0.4-0.1,0.6V216.8z"/>
</g>
</svg>
